<!DOCTYPE svg PUBLIC "-//W3C//DTD SVG 20010904//EN" "http://www.w3.org/TR/2001/REC-SVG-20010904/DTD/svg10.dtd">
<svg version="1.0" xmlns="http://www.w3.org/2000/svg" width="474px" height="474px" viewBox="0 0 4740 4740" preserveAspectRatio="xMidYMid meet">
<g id="layer1" fill="#3f7fbf" stroke="none">
 <path d="M2035 4459 c-97 -9 -254 -38 -277 -50 -17 -9 -18 -54 -18 -728 0 -395 3 -721 7 -724 3 -4 29 6 57 22 118 67 1486 856 1644 949 62 36 116 70 119 75 8 13 -29 44 -147 122 -399 264 -891 383 -1385 334z"/>
 <path d="M1365 4266 c-514 -247 -922 -709 -1096 -1240 -16 -50 -26 -93 -22 -96 37 -32 1244 -721 1253 -715 7 4 10 361 10 1044 0 1023 -1 1062 -29 1061 -4 -1 -55 -25 -116 -54z"/>
 <path d="M3610 3749 c-176 -103 -687 -398 -925 -535 -88 -50 -160 -97 -160 -105 0 -11 208 -135 720 -428 66 -38 190 -109 275 -158 639 -371 804 -464 815 -459 26 10 41 256 26 441 -18 224 -47 366 -113 560 -83 246 -251 525 -434 722 l-49 53 -155 -91z"/>
 <path d="M187 2673 c-14 -22 -29 -278 -23 -383 29 -511 221 -981 543 -1330 l60 -64 219 126 c120 69 323 186 449 259 127 73 307 176 400 230 94 54 171 104 173 112 2 10 -89 68 -275 175 -153 88 -333 192 -400 231 -67 38 -196 112 -285 164 -90 52 -313 180 -496 286 -360 208 -357 206 -365 194z"/>
 <path d="M3037 2513 c-4 -3 -7 -474 -7 -1045 0 -881 2 -1039 14 -1044 18 -7 205 81 306 143 189 117 421 319 553 483 158 196 297 454 368 685 22 71 27 64 -96 135 -111 65 -521 301 -840 485 -132 76 -249 144 -260 151 -22 16 -29 17 -38 7z"/>
 <path d="M2600 1683 c-91 -53 -239 -139 -330 -191 -91 -52 -201 -116 -245 -142 -44 -26 -294 -170 -555 -320 -261 -150 -483 -281 -493 -290 -18 -17 -16 -20 60 -75 273 -200 607 -332 962 -380 171 -24 478 -17 640 14 62 12 122 26 132 32 18 9 19 35 17 726 -2 467 -6 717 -13 719 -5 2 -84 -40 -175 -93z"/>
 </g>

</svg>
